<?xml version="1.0" encoding="UTF-8"?>
<svg xmlns="http://www.w3.org/2000/svg" xmlns:xlink="http://www.w3.org/1999/xlink" width="96px" height="96px" viewBox="0 0 96 96" version="1.1">
<g id="surface335510">
<path style=" stroke:none;fill-rule:nonzero;fill:rgb(48.235294%,12.156863%,63.529412%);fill-opacity:1;" d="M 26 38 L 34 58 L 66 64 L 58 50 Z M 26 38 "/>
<path style=" stroke:none;fill-rule:nonzero;fill:rgb(61.176471%,15.294118%,69.019608%);fill-opacity:1;" d="M 50 28 L 70 84 L 84 66 L 62 28 Z M 50 28 "/>
<path style=" stroke:none;fill-rule:nonzero;fill:rgb(29.019608%,7.843137%,54.901961%);fill-opacity:1;" d="M 57.835938 49.9375 L 52.929688 48.101562 L 31.484375 51.714844 L 33.253906 56.132812 L 62.046875 61.730469 Z M 62 28 L 50 28 L 64.523438 32.355469 Z M 60.484375 57.355469 L 62.046875 61.730469 L 84 66 Z M 60.484375 57.355469 "/>
<path style=" stroke:none;fill-rule:nonzero;fill:rgb(80.784314%,57.647059%,84.705882%);fill-opacity:1;" d="M 12 52 L 40 84 L 70 84 L 84 66 Z M 62 12 L 62 28 L 84 28 Z M 62 12 "/>
<path style=" stroke:none;fill-rule:nonzero;fill:rgb(72.941176%,40.784314%,78.431373%);fill-opacity:1;" d="M 40 84 L 84 66 L 70 84 Z M 62 12 L 50 28 L 62 28 Z M 62 12 "/>
</g>
</svg>
